PathFileType	4	(X/Y/Z)	 s01c0402.trc
DataRate	CameraRate	NumFrames	NumMarkers	Units	OrigDataRate	OrigDataStartFrame	OrigNumFrames
200	200	4	48	mm	200	1251	2000
Frame#	Time	racr			lacr			c7			jug			rlel			rdr			llel			ldr			s2			lic			ric			lasi			rasi			rpsi			lpsi			rgt			lgt			rth1			rth2			rth3			rth4			rlfc			rsh1			rsh2			rsh3			rsh4			rlmal			rmmal			rcal			rtoe			rmt5			lth1			lth2			lth4			lth3			llfc			lsh1			lsh2			lsh3			lsh4			llmal			lmmal			lcal			ltoe			lmt5			SBIKE			LBIKE			RBIKE			
		X1	Y1	Z1	X2	Y2	Z2	X3	Y3	Z3	X4	Y4	Z4	X5	Y5	Z5	X6	Y6	Z6	X7	Y7	Z7	X8	Y8	Z8	X9	Y9	Z9	X10	Y10	Z10	X11	Y11	Z11	X12	Y12	Z12	X13	Y13	Z13	X14	Y14	Z14	X15	Y15	Z15	X16	Y16	Z16	X17	Y17	Z17	X18	Y18	Z18	X19	Y19	Z19	X20	Y20	Z20	X21	Y21	Z21	X22	Y22	Z22	X23	Y23	Z23	X24	Y24	Z24	X25	Y25	Z25	X26	Y26	Z26	X27	Y27	Z27	X28	Y28	Z28	X29	Y29	Z29	X30	Y30	Z30	X31	Y31	Z31	X32	Y32	Z32	X33	Y33	Z33	X34	Y34	Z34	X35	Y35	Z35	X36	Y36	Z36	X37	Y37	Z37	X38	Y38	Z38	X39	Y39	Z39	X40	Y40	Z40	X41	Y41	Z41	X42	Y42	Z42	X43	Y43	Z43	X44	Y44	Z44	X45	Y45	Z45	X46	Y46	Z46	X47	Y47	Z47	X48	Y48	Z48	
1251	6.2550	704.540779	1282.584535	-30.123181	718.695063	1275.432635	-413.500725	708.500785	1398.910290	-215.813827	693.036970	1229.697008	-215.621703	537.223730	1044.121169	63.198113	691.377744	886.605720	-34.998623	547.751461	1060.025476	-537.016548	687.652381	887.366798	-444.216994	173.130504	1203.972415	-230.693675	339.417670	1208.416316	-404.355867	325.097278	1189.514799	-72.400792	337.629144	1155.076505	-381.000532	354.435741	1145.963759	-107.132225	203.912798	1238.590823	-177.752680	200.639113	1247.788485	-283.826412	275.935630	1074.160050	-54.155085	278.753342	1073.947549	-428.955770	351.695579	962.020551	-45.729877	403.512355	897.980834	-54.889014	454.960397	825.239726	-70.347930	447.716248	930.669148	-66.570150	495.065846	721.830417	-97.130281	438.110963	616.311215	-63.448805	406.269937	537.715962	-68.424935	364.776707	459.629309	-79.547948	447.379130	521.381355	-109.695104	294.821960	353.717387	-96.629795	339.575291	362.213401	-177.107665	242.530361	336.570681	-150.953306	499.028943	249.119296	-129.406766	389.020394	246.102778	-62.240378	337.142515	962.856502	-442.226545	401.637224	910.328788	-441.245312	438.307802	939.393868	-427.407758	455.674601	837.235936	-430.074037	487.483070	726.324556	-416.072541	379.165836	698.650025	-447.572952	305.812210	653.342142	-441.764025	230.466166	612.238521	-429.936145	336.117264	607.807331	-412.557904	123.427940	554.888482	-413.971047	144.804969	535.457976	-335.777763	74.449504	570.732487	-370.948046	195.441111	325.514058	-371.905690	124.004070	403.998503	-439.944025	-223.540885	893.431245	-250.356813	-12.490522	85.013099	-455.803658	-21.550791	80.815725	-55.661794	
1252	6.2600	705.209636	1283.938372	-31.705420	717.751970	1276.918054	-414.862903	707.152623	1400.525481	-217.229227	693.589462	1231.671543	-217.251352	538.534612	1045.156658	62.282978	691.738442	886.706037	-34.641043	548.094819	1059.385103	-537.090237	688.025385	887.273689	-444.073411	172.570716	1201.826725	-230.130354	339.816459	1207.460244	-403.520002	324.822267	1187.742464	-71.925171	337.598577	1154.009667	-379.812770	354.077489	1144.267807	-106.059490	203.541336	1236.304048	-177.230942	199.910484	1246.054461	-283.044763	274.437759	1071.288613	-54.156697	279.857790	1073.469038	-428.784701	348.592035	958.135971	-45.869571	398.931842	892.720998	-54.583455	448.669911	818.673935	-70.349799	444.360053	924.574441	-66.596082	487.653341	714.677787	-96.582783	431.958515	608.158941	-62.953994	401.086537	529.173865	-68.215331	360.376960	450.738756	-79.351867	441.663715	513.590352	-110.631734	290.477683	344.815389	-96.851218	336.535461	353.781122	-176.445386	238.670483	328.577149	-150.920988	494.255145	238.086531	-129.573041	384.175184	236.217389	-62.361307	341.407435	963.777795	-443.116015	405.493105	913.511915	-442.660679	442.246048	943.363987	-428.687851	463.498008	841.746183	-431.650974	494.895960	731.968915	-418.368382	386.016125	705.366591	-449.074343	312.177602	661.047608	-442.394745	236.607142	621.073015	-430.199237	342.182156	614.987164	-413.809121	128.994695	564.237564	-413.905922	150.412162	545.073759	-335.911575	79.815521	579.974820	-370.835484	200.736609	335.016174	-371.783692	129.349735	413.541095	-439.825949	-223.540968	893.396916	-250.388388	-12.488381	84.982287	-455.821259	-21.537596	80.804698	-55.675161	
1253	6.2650	705.836524	1285.283839	-33.421151	716.790881	1278.546633	-416.296162	705.760410	1402.156322	-218.711135	694.098357	1233.649463	-218.261002	539.796146	1046.356969	61.346069	692.093328	886.901835	-34.335129	548.318807	1058.936520	-537.406628	688.293294	887.258878	-444.034486	171.059286	1200.366970	-228.614178	340.030892	1206.951726	-402.724703	324.495025	1186.193494	-71.331395	337.503913	1153.099779	-378.733176	353.774170	1142.654011	-104.982700	203.233249	1234.143660	-176.620997	199.320281	1244.294527	-282.258983	272.913491	1068.626386	-54.304284	280.871697	1073.046526	-428.641822	345.414295	954.305751	-45.630688	394.260443	887.709701	-54.235463	442.295724	812.559084	-69.961406	440.431532	918.492617	-66.059237	479.933154	707.544573	-95.987188	425.666965	600.098898	-62.676975	395.400991	520.877128	-68.095694	355.501301	442.045296	-79.175377	435.869035	505.888027	-110.942910	285.807868	336.365488	-96.950093	332.065417	345.324965	-176.201997	234.508463	321.253406	-150.922489	488.838310	227.365252	-129.904976	378.942441	226.992469	-62.520958	343.777734	966.019687	-443.116208	409.267932	916.933122	-444.085430	445.694154	948.240230	-429.848896	470.516306	847.235215	-433.271065	502.161308	737.894650	-420.287334	393.128587	712.331635	-450.289199	319.063548	669.015469	-443.266862	243.177274	629.539720	-429.937294	348.911607	622.403449	-415.068591	135.161905	573.254310	-413.893686	156.917944	554.368225	-335.437753	85.679838	588.884143	-370.713677	206.598924	344.259750	-371.772156	135.370610	422.799299	-439.723946	-223.542198	893.362636	-250.441088	-12.483280	84.957647	-455.833223	-21.530286	80.784136	-55.696457	
1254	6.2700	706.408712	1286.720353	-35.360825	715.838009	1280.168434	-417.874144	704.420414	1403.766162	-220.472010	694.420707	1235.641663	-220.025229	541.017900	1047.755945	60.525625	692.488690	887.131346	-34.205363	548.392338	1058.643511	-537.983163	688.448202	887.320964	-444.094482	169.946184	1198.758619	-227.294556	339.929608	1206.765180	-401.981150	324.246165	1184.866996	-70.750247	337.269892	1152.412758	-377.754011	353.565861	1141.047820	-103.853130	202.947135	1232.120527	-175.900804	198.749049	1242.573429	-281.375775	271.549555	1066.260830	-54.316707	281.817700	1072.861660	-428.607596	342.210364	950.819762	-45.182393	389.509554	883.019433	-53.836545	435.673288	806.774306	-69.557642	436.390638	912.710730	-65.473876	471.918685	700.501261	-95.434374	418.721544	592.374288	-62.302864	389.139399	512.968928	-67.933920	349.969380	433.790374	-79.063687	429.479147	498.409304	-111.120974	280.743231	328.250571	-97.380635	327.227621	337.137299	-176.001726	229.829681	314.378515	-150.969121	482.964183	216.958400	-130.288401	372.850693	217.774195	-63.225908	346.733882	968.861434	-443.779494	412.942371	920.583178	-445.508664	450.221033	954.072274	-429.532817	476.735432	853.338783	-435.021885	509.678036	744.080443	-422.549028	400.269882	719.164755	-451.573910	326.029449	676.863893	-444.138075	249.996995	637.962585	-430.200210	355.824649	629.773117	-416.340267	141.899541	581.899340	-413.951361	164.244494	563.197658	-335.249966	92.008484	597.421672	-370.583134	213.047503	352.947617	-371.671425	141.960337	431.734010	-439.606678	-223.560095	893.336777	-250.517633	-12.495361	84.925734	-455.848148	-21.552023	80.788019	-55.702465	
